<svg xmlns="http://www.w3.org/2000/svg" xmlns:xlink="http://www.w3.org/1999/xlink" width="600" height="400" viewBox="0 0 2400 1600">
<defs>
  <clipPath id="clip330">
    <rect x="0" y="0" width="2400" height="1600"></rect>
  </clipPath>
</defs>
<path clip-path="url(#clip330)" d="
M0 1600 L2400 1600 L2400 0 L0 0  Z
  " fill="#ffffff" fill-rule="evenodd" fill-opacity="1"></path>
<defs>
  <clipPath id="clip331">
    <rect x="480" y="0" width="1681" height="1600"></rect>
  </clipPath>
</defs>
<path clip-path="url(#clip330)" d="
M224.584 1486.45 L2352.76 1486.45 L2352.76 47.2441 L224.584 47.2441  Z
  " fill="#ffffff" fill-rule="evenodd" fill-opacity="1"></path>
<defs>
  <clipPath id="clip332">
    <rect x="224" y="47" width="2129" height="1440"></rect>
  </clipPath>
</defs>
<polyline clip-path="url(#clip332)" style="stroke:#000000; stroke-linecap:round; stroke-linejoin:round; stroke-width:2; stroke-opacity:0.1; fill:none" points="
  461.12,1486.45 461.12,47.2441 
  "></polyline>
<polyline clip-path="url(#clip332)" style="stroke:#000000; stroke-linecap:round; stroke-linejoin:round; stroke-width:2; stroke-opacity:0.1; fill:none" points="
  891.826,1486.45 891.826,47.2441 
  "></polyline>
<polyline clip-path="url(#clip332)" style="stroke:#000000; stroke-linecap:round; stroke-linejoin:round; stroke-width:2; stroke-opacity:0.1; fill:none" points="
  1322.53,1486.45 1322.53,47.2441 
  "></polyline>
<polyline clip-path="url(#clip332)" style="stroke:#000000; stroke-linecap:round; stroke-linejoin:round; stroke-width:2; stroke-opacity:0.1; fill:none" points="
  1753.24,1486.45 1753.24,47.2441 
  "></polyline>
<polyline clip-path="url(#clip332)" style="stroke:#000000; stroke-linecap:round; stroke-linejoin:round; stroke-width:2; stroke-opacity:0.1; fill:none" points="
  2183.94,1486.45 2183.94,47.2441 
  "></polyline>
<polyline clip-path="url(#clip330)" style="stroke:#000000; stroke-linecap:round; stroke-linejoin:round; stroke-width:4; stroke-opacity:1; fill:none" points="
  224.584,1486.45 2352.76,1486.45 
  "></polyline>
<polyline clip-path="url(#clip330)" style="stroke:#000000; stroke-linecap:round; stroke-linejoin:round; stroke-width:4; stroke-opacity:1; fill:none" points="
  461.12,1486.45 461.12,1467.55 
  "></polyline>
<polyline clip-path="url(#clip330)" style="stroke:#000000; stroke-linecap:round; stroke-linejoin:round; stroke-width:4; stroke-opacity:1; fill:none" points="
  891.826,1486.45 891.826,1467.55 
  "></polyline>
<polyline clip-path="url(#clip330)" style="stroke:#000000; stroke-linecap:round; stroke-linejoin:round; stroke-width:4; stroke-opacity:1; fill:none" points="
  1322.53,1486.45 1322.53,1467.55 
  "></polyline>
<polyline clip-path="url(#clip330)" style="stroke:#000000; stroke-linecap:round; stroke-linejoin:round; stroke-width:4; stroke-opacity:1; fill:none" points="
  1753.24,1486.45 1753.24,1467.55 
  "></polyline>
<polyline clip-path="url(#clip330)" style="stroke:#000000; stroke-linecap:round; stroke-linejoin:round; stroke-width:4; stroke-opacity:1; fill:none" points="
  2183.94,1486.45 2183.94,1467.55 
  "></polyline>
<path clip-path="url(#clip330)" d="M392.567 1532.02 L422.243 1532.02 L422.243 1535.95 L392.567 1535.95 L392.567 1532.02 Z" fill="#000000" fill-rule="evenodd" fill-opacity="1"></path><path clip-path="url(#clip330)" d="M442.335 1517.37 Q438.724 1517.37 436.896 1520.93 Q435.09 1524.47 435.09 1531.6 Q435.09 1538.71 436.896 1542.27 Q438.724 1545.82 442.335 1545.82 Q445.97 1545.82 447.775 1542.27 Q449.604 1538.71 449.604 1531.6 Q449.604 1524.47 447.775 1520.93 Q445.97 1517.37 442.335 1517.37 M442.335 1513.66 Q448.146 1513.66 451.201 1518.27 Q454.28 1522.85 454.28 1531.6 Q454.28 1540.33 451.201 1544.94 Q448.146 1549.52 442.335 1549.52 Q436.525 1549.52 433.447 1544.94 Q430.391 1540.33 430.391 1531.6 Q430.391 1522.85 433.447 1518.27 Q436.525 1513.66 442.335 1513.66 Z" fill="#000000" fill-rule="evenodd" fill-opacity="1"></path><path clip-path="url(#clip330)" d="M462.497 1542.97 L467.382 1542.97 L467.382 1548.85 L462.497 1548.85 L462.497 1542.97 Z" fill="#000000" fill-rule="evenodd" fill-opacity="1"></path><path clip-path="url(#clip330)" d="M478.377 1544.91 L486.016 1544.91 L486.016 1518.55 L477.706 1520.21 L477.706 1515.95 L485.969 1514.29 L490.645 1514.29 L490.645 1544.91 L498.284 1544.91 L498.284 1548.85 L478.377 1548.85 L478.377 1544.91 Z" fill="#000000" fill-rule="evenodd" fill-opacity="1"></path><path clip-path="url(#clip330)" d="M517.729 1517.37 Q514.117 1517.37 512.289 1520.93 Q510.483 1524.47 510.483 1531.6 Q510.483 1538.71 512.289 1542.27 Q514.117 1545.82 517.729 1545.82 Q521.363 1545.82 523.168 1542.27 Q524.997 1538.71 524.997 1531.6 Q524.997 1524.47 523.168 1520.93 Q521.363 1517.37 517.729 1517.37 M517.729 1513.66 Q523.539 1513.66 526.594 1518.27 Q529.673 1522.85 529.673 1531.6 Q529.673 1540.33 526.594 1544.94 Q523.539 1549.52 517.729 1549.52 Q511.918 1549.52 508.84 1544.94 Q505.784 1540.33 505.784 1531.6 Q505.784 1522.85 508.84 1518.27 Q511.918 1513.66 517.729 1513.66 Z" fill="#000000" fill-rule="evenodd" fill-opacity="1"></path><path clip-path="url(#clip330)" d="M823.771 1532.02 L853.446 1532.02 L853.446 1535.95 L823.771 1535.95 L823.771 1532.02 Z" fill="#000000" fill-rule="evenodd" fill-opacity="1"></path><path clip-path="url(#clip330)" d="M873.539 1517.37 Q869.928 1517.37 868.099 1520.93 Q866.294 1524.47 866.294 1531.6 Q866.294 1538.71 868.099 1542.27 Q869.928 1545.82 873.539 1545.82 Q877.173 1545.82 878.979 1542.27 Q880.807 1538.71 880.807 1531.6 Q880.807 1524.47 878.979 1520.93 Q877.173 1517.37 873.539 1517.37 M873.539 1513.66 Q879.349 1513.66 882.405 1518.27 Q885.483 1522.85 885.483 1531.6 Q885.483 1540.33 882.405 1544.94 Q879.349 1549.52 873.539 1549.52 Q867.729 1549.52 864.65 1544.94 Q861.595 1540.33 861.595 1531.6 Q861.595 1522.85 864.65 1518.27 Q867.729 1513.66 873.539 1513.66 Z" fill="#000000" fill-rule="evenodd" fill-opacity="1"></path><path clip-path="url(#clip330)" d="M893.701 1542.97 L898.585 1542.97 L898.585 1548.85 L893.701 1548.85 L893.701 1542.97 Z" fill="#000000" fill-rule="evenodd" fill-opacity="1"></path><path clip-path="url(#clip330)" d="M918.77 1517.37 Q915.159 1517.37 913.33 1520.93 Q911.525 1524.47 911.525 1531.6 Q911.525 1538.71 913.33 1542.27 Q915.159 1545.82 918.77 1545.82 Q922.404 1545.82 924.21 1542.27 Q926.039 1538.71 926.039 1531.6 Q926.039 1524.47 924.21 1520.93 Q922.404 1517.37 918.77 1517.37 M918.77 1513.66 Q924.58 1513.66 927.636 1518.27 Q930.715 1522.85 930.715 1531.6 Q930.715 1540.33 927.636 1544.94 Q924.58 1549.52 918.77 1549.52 Q912.96 1549.52 909.881 1544.94 Q906.826 1540.33 906.826 1531.6 Q906.826 1522.85 909.881 1518.27 Q912.96 1513.66 918.77 1513.66 Z" fill="#000000" fill-rule="evenodd" fill-opacity="1"></path><path clip-path="url(#clip330)" d="M938.978 1514.29 L957.335 1514.29 L957.335 1518.22 L943.261 1518.22 L943.261 1526.7 Q944.279 1526.35 945.298 1526.19 Q946.316 1526 947.335 1526 Q953.122 1526 956.501 1529.17 Q959.881 1532.34 959.881 1537.76 Q959.881 1543.34 956.409 1546.44 Q952.937 1549.52 946.617 1549.52 Q944.441 1549.52 942.173 1549.15 Q939.927 1548.78 937.52 1548.04 L937.52 1543.34 Q939.603 1544.47 941.826 1545.03 Q944.048 1545.58 946.525 1545.58 Q950.529 1545.58 952.867 1543.48 Q955.205 1541.37 955.205 1537.76 Q955.205 1534.15 952.867 1532.04 Q950.529 1529.94 946.525 1529.94 Q944.65 1529.94 942.775 1530.35 Q940.923 1530.77 938.978 1531.65 L938.978 1514.29 Z" fill="#000000" fill-rule="evenodd" fill-opacity="1"></path><path clip-path="url(#clip330)" d="M1284.84 1517.37 Q1281.22 1517.37 1279.4 1520.93 Q1277.59 1524.47 1277.59 1531.6 Q1277.59 1538.71 1279.4 1542.27 Q1281.22 1545.82 1284.84 1545.82 Q1288.47 1545.82 1290.27 1542.27 Q1292.1 1538.71 1292.1 1531.6 Q1292.1 1524.47 1290.27 1520.93 Q1288.47 1517.37 1284.84 1517.37 M1284.84 1513.66 Q1290.65 1513.66 1293.7 1518.27 Q1296.78 1522.85 1296.78 1531.6 Q1296.78 1540.33 1293.7 1544.94 Q1290.65 1549.52 1284.84 1549.52 Q1279.03 1549.52 1275.95 1544.94 Q1272.89 1540.33 1272.89 1531.6 Q1272.89 1522.85 1275.95 1518.27 Q1279.03 1513.66 1284.84 1513.66 Z" fill="#000000" fill-rule="evenodd" fill-opacity="1"></path><path clip-path="url(#clip330)" d="M1305 1542.97 L1309.88 1542.97 L1309.88 1548.85 L1305 1548.85 L1305 1542.97 Z" fill="#000000" fill-rule="evenodd" fill-opacity="1"></path><path clip-path="url(#clip330)" d="M1330.07 1517.37 Q1326.46 1517.37 1324.63 1520.93 Q1322.82 1524.47 1322.82 1531.6 Q1322.82 1538.71 1324.63 1542.27 Q1326.46 1545.82 1330.07 1545.82 Q1333.7 1545.82 1335.51 1542.27 Q1337.33 1538.71 1337.33 1531.6 Q1337.33 1524.47 1335.51 1520.93 Q1333.7 1517.37 1330.07 1517.37 M1330.07 1513.66 Q1335.88 1513.66 1338.93 1518.27 Q1342.01 1522.85 1342.01 1531.6 Q1342.01 1540.33 1338.93 1544.94 Q1335.88 1549.52 1330.07 1549.52 Q1324.26 1549.52 1321.18 1544.94 Q1318.12 1540.33 1318.12 1531.6 Q1318.12 1522.85 1321.18 1518.27 Q1324.26 1513.66 1330.07 1513.66 Z" fill="#000000" fill-rule="evenodd" fill-opacity="1"></path><path clip-path="url(#clip330)" d="M1360.23 1517.37 Q1356.62 1517.37 1354.79 1520.93 Q1352.98 1524.47 1352.98 1531.6 Q1352.98 1538.71 1354.79 1542.27 Q1356.62 1545.82 1360.23 1545.82 Q1363.86 1545.82 1365.67 1542.27 Q1367.5 1538.71 1367.5 1531.6 Q1367.5 1524.47 1365.67 1520.93 Q1363.86 1517.37 1360.23 1517.37 M1360.23 1513.66 Q1366.04 1513.66 1369.09 1518.27 Q1372.17 1522.85 1372.17 1531.6 Q1372.17 1540.33 1369.09 1544.94 Q1366.04 1549.52 1360.23 1549.52 Q1354.42 1549.52 1351.34 1544.94 Q1348.28 1540.33 1348.28 1531.6 Q1348.28 1522.85 1351.34 1518.27 Q1354.42 1513.66 1360.23 1513.66 Z" fill="#000000" fill-rule="evenodd" fill-opacity="1"></path><path clip-path="url(#clip330)" d="M1716.04 1517.37 Q1712.43 1517.37 1710.6 1520.93 Q1708.79 1524.47 1708.79 1531.6 Q1708.79 1538.71 1710.6 1542.27 Q1712.43 1545.82 1716.04 1545.82 Q1719.67 1545.82 1721.48 1542.27 Q1723.31 1538.71 1723.31 1531.6 Q1723.31 1524.47 1721.48 1520.93 Q1719.67 1517.37 1716.04 1517.37 M1716.04 1513.66 Q1721.85 1513.66 1724.9 1518.27 Q1727.98 1522.85 1727.98 1531.6 Q1727.98 1540.33 1724.9 1544.94 Q1721.85 1549.52 1716.04 1549.52 Q1710.23 1549.52 1707.15 1544.94 Q1704.09 1540.33 1704.09 1531.6 Q1704.09 1522.85 1707.15 1518.27 Q1710.23 1513.66 1716.04 1513.66 Z" fill="#000000" fill-rule="evenodd" fill-opacity="1"></path><path clip-path="url(#clip330)" d="M1736.2 1542.97 L1741.08 1542.97 L1741.08 1548.85 L1736.2 1548.85 L1736.2 1542.97 Z" fill="#000000" fill-rule="evenodd" fill-opacity="1"></path><path clip-path="url(#clip330)" d="M1761.27 1517.37 Q1757.66 1517.37 1755.83 1520.93 Q1754.02 1524.47 1754.02 1531.6 Q1754.02 1538.71 1755.83 1542.27 Q1757.66 1545.82 1761.27 1545.82 Q1764.9 1545.82 1766.71 1542.27 Q1768.54 1538.71 1768.54 1531.6 Q1768.54 1524.47 1766.71 1520.93 Q1764.9 1517.37 1761.27 1517.37 M1761.27 1513.66 Q1767.08 1513.66 1770.14 1518.27 Q1773.21 1522.85 1773.21 1531.6 Q1773.21 1540.33 1770.14 1544.94 Q1767.08 1549.52 1761.27 1549.52 Q1755.46 1549.52 1752.38 1544.94 Q1749.33 1540.33 1749.33 1531.6 Q1749.33 1522.85 1752.38 1518.27 Q1755.46 1513.66 1761.27 1513.66 Z" fill="#000000" fill-rule="evenodd" fill-opacity="1"></path><path clip-path="url(#clip330)" d="M1781.48 1514.29 L1799.83 1514.29 L1799.83 1518.22 L1785.76 1518.22 L1785.76 1526.7 Q1786.78 1526.35 1787.8 1526.19 Q1788.82 1526 1789.83 1526 Q1795.62 1526 1799 1529.17 Q1802.38 1532.34 1802.38 1537.76 Q1802.38 1543.34 1798.91 1546.44 Q1795.44 1549.52 1789.12 1549.52 Q1786.94 1549.52 1784.67 1549.15 Q1782.43 1548.78 1780.02 1548.04 L1780.02 1543.34 Q1782.1 1544.47 1784.33 1545.03 Q1786.55 1545.58 1789.02 1545.58 Q1793.03 1545.58 1795.37 1543.48 Q1797.7 1541.37 1797.7 1537.76 Q1797.7 1534.15 1795.37 1532.04 Q1793.03 1529.94 1789.02 1529.94 Q1787.15 1529.94 1785.27 1530.35 Q1783.42 1530.77 1781.48 1531.65 L1781.48 1514.29 Z" fill="#000000" fill-rule="evenodd" fill-opacity="1"></path><path clip-path="url(#clip330)" d="M2146.25 1517.37 Q2142.64 1517.37 2140.81 1520.93 Q2139 1524.47 2139 1531.6 Q2139 1538.71 2140.81 1542.27 Q2142.64 1545.82 2146.25 1545.82 Q2149.88 1545.82 2151.69 1542.27 Q2153.52 1538.71 2153.52 1531.6 Q2153.52 1524.47 2151.69 1520.93 Q2149.88 1517.37 2146.25 1517.37 M2146.25 1513.66 Q2152.06 1513.66 2155.11 1518.27 Q2158.19 1522.85 2158.19 1531.6 Q2158.19 1540.33 2155.11 1544.94 Q2152.06 1549.52 2146.25 1549.52 Q2140.44 1549.52 2137.36 1544.94 Q2134.3 1540.33 2134.3 1531.6 Q2134.3 1522.85 2137.36 1518.27 Q2140.44 1513.66 2146.25 1513.66 Z" fill="#000000" fill-rule="evenodd" fill-opacity="1"></path><path clip-path="url(#clip330)" d="M2166.41 1542.97 L2171.29 1542.97 L2171.29 1548.85 L2166.41 1548.85 L2166.41 1542.97 Z" fill="#000000" fill-rule="evenodd" fill-opacity="1"></path><path clip-path="url(#clip330)" d="M2182.29 1544.91 L2189.93 1544.91 L2189.93 1518.55 L2181.62 1520.21 L2181.62 1515.95 L2189.88 1514.29 L2194.56 1514.29 L2194.56 1544.91 L2202.2 1544.91 L2202.2 1548.85 L2182.29 1548.85 L2182.29 1544.91 Z" fill="#000000" fill-rule="evenodd" fill-opacity="1"></path><path clip-path="url(#clip330)" d="M2221.64 1517.37 Q2218.03 1517.37 2216.2 1520.93 Q2214.39 1524.47 2214.39 1531.6 Q2214.39 1538.71 2216.2 1542.27 Q2218.03 1545.82 2221.64 1545.82 Q2225.27 1545.82 2227.08 1542.27 Q2228.91 1538.71 2228.91 1531.6 Q2228.91 1524.47 2227.08 1520.93 Q2225.27 1517.37 2221.64 1517.37 M2221.64 1513.66 Q2227.45 1513.66 2230.51 1518.27 Q2233.58 1522.85 2233.58 1531.6 Q2233.58 1540.33 2230.51 1544.94 Q2227.45 1549.52 2221.64 1549.52 Q2215.83 1549.52 2212.75 1544.94 Q2209.7 1540.33 2209.7 1531.6 Q2209.7 1522.85 2212.75 1518.27 Q2215.83 1513.66 2221.64 1513.66 Z" fill="#000000" fill-rule="evenodd" fill-opacity="1"></path><polyline clip-path="url(#clip332)" style="stroke:#000000; stroke-linecap:round; stroke-linejoin:round; stroke-width:2; stroke-opacity:0.1; fill:none" points="
  224.584,1379.47 2352.76,1379.47 
  "></polyline>
<polyline clip-path="url(#clip332)" style="stroke:#000000; stroke-linecap:round; stroke-linejoin:round; stroke-width:2; stroke-opacity:0.1; fill:none" points="
  224.584,1211.46 2352.76,1211.46 
  "></polyline>
<polyline clip-path="url(#clip332)" style="stroke:#000000; stroke-linecap:round; stroke-linejoin:round; stroke-width:2; stroke-opacity:0.1; fill:none" points="
  224.584,1043.46 2352.76,1043.46 
  "></polyline>
<polyline clip-path="url(#clip332)" style="stroke:#000000; stroke-linecap:round; stroke-linejoin:round; stroke-width:2; stroke-opacity:0.1; fill:none" points="
  224.584,875.45 2352.76,875.45 
  "></polyline>
<polyline clip-path="url(#clip332)" style="stroke:#000000; stroke-linecap:round; stroke-linejoin:round; stroke-width:2; stroke-opacity:0.1; fill:none" points="
  224.584,707.445 2352.76,707.445 
  "></polyline>
<polyline clip-path="url(#clip332)" style="stroke:#000000; stroke-linecap:round; stroke-linejoin:round; stroke-width:2; stroke-opacity:0.1; fill:none" points="
  224.584,539.44 2352.76,539.44 
  "></polyline>
<polyline clip-path="url(#clip332)" style="stroke:#000000; stroke-linecap:round; stroke-linejoin:round; stroke-width:2; stroke-opacity:0.1; fill:none" points="
  224.584,371.435 2352.76,371.435 
  "></polyline>
<polyline clip-path="url(#clip332)" style="stroke:#000000; stroke-linecap:round; stroke-linejoin:round; stroke-width:2; stroke-opacity:0.1; fill:none" points="
  224.584,203.43 2352.76,203.43 
  "></polyline>
<polyline clip-path="url(#clip330)" style="stroke:#000000; stroke-linecap:round; stroke-linejoin:round; stroke-width:4; stroke-opacity:1; fill:none" points="
  224.584,1486.45 224.584,47.2441 
  "></polyline>
<polyline clip-path="url(#clip330)" style="stroke:#000000; stroke-linecap:round; stroke-linejoin:round; stroke-width:4; stroke-opacity:1; fill:none" points="
  224.584,1379.47 243.482,1379.47 
  "></polyline>
<polyline clip-path="url(#clip330)" style="stroke:#000000; stroke-linecap:round; stroke-linejoin:round; stroke-width:4; stroke-opacity:1; fill:none" points="
  224.584,1211.46 243.482,1211.46 
  "></polyline>
<polyline clip-path="url(#clip330)" style="stroke:#000000; stroke-linecap:round; stroke-linejoin:round; stroke-width:4; stroke-opacity:1; fill:none" points="
  224.584,1043.46 243.482,1043.46 
  "></polyline>
<polyline clip-path="url(#clip330)" style="stroke:#000000; stroke-linecap:round; stroke-linejoin:round; stroke-width:4; stroke-opacity:1; fill:none" points="
  224.584,875.45 243.482,875.45 
  "></polyline>
<polyline clip-path="url(#clip330)" style="stroke:#000000; stroke-linecap:round; stroke-linejoin:round; stroke-width:4; stroke-opacity:1; fill:none" points="
  224.584,707.445 243.482,707.445 
  "></polyline>
<polyline clip-path="url(#clip330)" style="stroke:#000000; stroke-linecap:round; stroke-linejoin:round; stroke-width:4; stroke-opacity:1; fill:none" points="
  224.584,539.44 243.482,539.44 
  "></polyline>
<polyline clip-path="url(#clip330)" style="stroke:#000000; stroke-linecap:round; stroke-linejoin:round; stroke-width:4; stroke-opacity:1; fill:none" points="
  224.584,371.435 243.482,371.435 
  "></polyline>
<polyline clip-path="url(#clip330)" style="stroke:#000000; stroke-linecap:round; stroke-linejoin:round; stroke-width:4; stroke-opacity:1; fill:none" points="
  224.584,203.43 243.482,203.43 
  "></polyline>
<path clip-path="url(#clip330)" d="M51.5708 1379.92 L81.2466 1379.92 L81.2466 1383.85 L51.5708 1383.85 L51.5708 1379.92 Z" fill="#000000" fill-rule="evenodd" fill-opacity="1"></path><path clip-path="url(#clip330)" d="M101.339 1365.26 Q97.728 1365.26 95.8993 1368.83 Q94.0937 1372.37 94.0937 1379.5 Q94.0937 1386.61 95.8993 1390.17 Q97.728 1393.71 101.339 1393.71 Q104.973 1393.71 106.779 1390.17 Q108.608 1386.61 108.608 1379.5 Q108.608 1372.37 106.779 1368.83 Q104.973 1365.26 101.339 1365.26 M101.339 1361.56 Q107.149 1361.56 110.205 1366.17 Q113.283 1370.75 113.283 1379.5 Q113.283 1388.23 110.205 1392.83 Q107.149 1397.42 101.339 1397.42 Q95.5289 1397.42 92.4502 1392.83 Q89.3947 1388.23 89.3947 1379.5 Q89.3947 1370.75 92.4502 1366.17 Q95.5289 1361.56 101.339 1361.56 Z" fill="#000000" fill-rule="evenodd" fill-opacity="1"></path><path clip-path="url(#clip330)" d="M121.501 1390.87 L126.385 1390.87 L126.385 1396.75 L121.501 1396.75 L121.501 1390.87 Z" fill="#000000" fill-rule="evenodd" fill-opacity="1"></path><path clip-path="url(#clip330)" d="M146.57 1365.26 Q142.959 1365.26 141.131 1368.83 Q139.325 1372.37 139.325 1379.5 Q139.325 1386.61 141.131 1390.17 Q142.959 1393.71 146.57 1393.71 Q150.205 1393.71 152.01 1390.17 Q153.839 1386.61 153.839 1379.5 Q153.839 1372.37 152.01 1368.83 Q150.205 1365.26 146.57 1365.26 M146.57 1361.56 Q152.38 1361.56 155.436 1366.17 Q158.515 1370.75 158.515 1379.5 Q158.515 1388.23 155.436 1392.83 Q152.38 1397.42 146.57 1397.42 Q140.76 1397.42 137.681 1392.83 Q134.626 1388.23 134.626 1379.5 Q134.626 1370.75 137.681 1366.17 Q140.76 1361.56 146.57 1361.56 Z" fill="#000000" fill-rule="evenodd" fill-opacity="1"></path><path clip-path="url(#clip330)" d="M176.732 1380.33 Q173.399 1380.33 171.478 1382.12 Q169.579 1383.9 169.579 1387.02 Q169.579 1390.15 171.478 1391.93 Q173.399 1393.71 176.732 1393.71 Q180.066 1393.71 181.987 1391.93 Q183.908 1390.13 183.908 1387.02 Q183.908 1383.9 181.987 1382.12 Q180.089 1380.33 176.732 1380.33 M172.056 1378.34 Q169.047 1377.6 167.357 1375.54 Q165.691 1373.48 165.691 1370.52 Q165.691 1366.38 168.63 1363.97 Q171.593 1361.56 176.732 1361.56 Q181.894 1361.56 184.834 1363.97 Q187.774 1366.38 187.774 1370.52 Q187.774 1373.48 186.084 1375.54 Q184.417 1377.6 181.431 1378.34 Q184.811 1379.13 186.686 1381.42 Q188.584 1383.71 188.584 1387.02 Q188.584 1392.05 185.505 1394.73 Q182.45 1397.42 176.732 1397.42 Q171.015 1397.42 167.936 1394.73 Q164.88 1392.05 164.88 1387.02 Q164.88 1383.71 166.779 1381.42 Q168.677 1379.13 172.056 1378.34 M170.343 1370.96 Q170.343 1373.64 172.01 1375.15 Q173.7 1376.65 176.732 1376.65 Q179.741 1376.65 181.431 1375.15 Q183.144 1373.64 183.144 1370.96 Q183.144 1368.27 181.431 1366.77 Q179.741 1365.26 176.732 1365.26 Q173.7 1365.26 172.01 1366.77 Q170.343 1368.27 170.343 1370.96 Z" fill="#000000" fill-rule="evenodd" fill-opacity="1"></path><path clip-path="url(#clip330)" d="M51.3162 1211.91 L80.992 1211.91 L80.992 1215.85 L51.3162 1215.85 L51.3162 1211.91 Z" fill="#000000" fill-rule="evenodd" fill-opacity="1"></path><path clip-path="url(#clip330)" d="M101.084 1197.26 Q97.4734 1197.26 95.6447 1200.82 Q93.8391 1204.37 93.8391 1211.5 Q93.8391 1218.6 95.6447 1222.17 Q97.4734 1225.71 101.084 1225.71 Q104.719 1225.71 106.524 1222.17 Q108.353 1218.6 108.353 1211.5 Q108.353 1204.37 106.524 1200.82 Q104.719 1197.26 101.084 1197.26 M101.084 1193.56 Q106.895 1193.56 109.95 1198.16 Q113.029 1202.75 113.029 1211.5 Q113.029 1220.22 109.95 1224.83 Q106.895 1229.41 101.084 1229.41 Q95.2743 1229.41 92.1956 1224.83 Q89.1401 1220.22 89.1401 1211.5 Q89.1401 1202.75 92.1956 1198.16 Q95.2743 1193.56 101.084 1193.56 Z" fill="#000000" fill-rule="evenodd" fill-opacity="1"></path><path clip-path="url(#clip330)" d="M121.246 1222.86 L126.131 1222.86 L126.131 1228.74 L121.246 1228.74 L121.246 1222.86 Z" fill="#000000" fill-rule="evenodd" fill-opacity="1"></path><path clip-path="url(#clip330)" d="M146.316 1197.26 Q142.705 1197.26 140.876 1200.82 Q139.07 1204.37 139.07 1211.5 Q139.07 1218.6 140.876 1222.17 Q142.705 1225.71 146.316 1225.71 Q149.95 1225.71 151.755 1222.17 Q153.584 1218.6 153.584 1211.5 Q153.584 1204.37 151.755 1200.82 Q149.95 1197.26 146.316 1197.26 M146.316 1193.56 Q152.126 1193.56 155.181 1198.16 Q158.26 1202.75 158.26 1211.5 Q158.26 1220.22 155.181 1224.83 Q152.126 1229.41 146.316 1229.41 Q140.506 1229.41 137.427 1224.83 Q134.371 1220.22 134.371 1211.5 Q134.371 1202.75 137.427 1198.16 Q140.506 1193.56 146.316 1193.56 Z" fill="#000000" fill-rule="evenodd" fill-opacity="1"></path><path clip-path="url(#clip330)" d="M177.056 1209.6 Q173.908 1209.6 172.056 1211.75 Q170.228 1213.9 170.228 1217.65 Q170.228 1221.38 172.056 1223.56 Q173.908 1225.71 177.056 1225.71 Q180.204 1225.71 182.033 1223.56 Q183.885 1221.38 183.885 1217.65 Q183.885 1213.9 182.033 1211.75 Q180.204 1209.6 177.056 1209.6 M186.339 1194.94 L186.339 1199.2 Q184.579 1198.37 182.774 1197.93 Q180.991 1197.49 179.232 1197.49 Q174.603 1197.49 172.149 1200.62 Q169.718 1203.74 169.371 1210.06 Q170.737 1208.05 172.797 1206.98 Q174.857 1205.89 177.334 1205.89 Q182.542 1205.89 185.552 1209.06 Q188.584 1212.21 188.584 1217.65 Q188.584 1222.98 185.436 1226.19 Q182.288 1229.41 177.056 1229.41 Q171.061 1229.41 167.89 1224.83 Q164.718 1220.22 164.718 1211.5 Q164.718 1203.3 168.607 1198.44 Q172.496 1193.56 179.047 1193.56 Q180.806 1193.56 182.589 1193.9 Q184.394 1194.25 186.339 1194.94 Z" fill="#000000" fill-rule="evenodd" fill-opacity="1"></path><path clip-path="url(#clip330)" d="M50.9921 1043.91 L80.6679 1043.91 L80.6679 1047.84 L50.9921 1047.84 L50.9921 1043.91 Z" fill="#000000" fill-rule="evenodd" fill-opacity="1"></path><path clip-path="url(#clip330)" d="M100.76 1029.25 Q97.1493 1029.25 95.3206 1032.82 Q93.515 1036.36 93.515 1043.49 Q93.515 1050.6 95.3206 1054.16 Q97.1493 1057.7 100.76 1057.7 Q104.395 1057.7 106.2 1054.16 Q108.029 1050.6 108.029 1043.49 Q108.029 1036.36 106.2 1032.82 Q104.395 1029.25 100.76 1029.25 M100.76 1025.55 Q106.571 1025.55 109.626 1030.16 Q112.705 1034.74 112.705 1043.49 Q112.705 1052.22 109.626 1056.82 Q106.571 1061.41 100.76 1061.41 Q94.9502 1061.41 91.8715 1056.82 Q88.816 1052.22 88.816 1043.49 Q88.816 1034.74 91.8715 1030.16 Q94.9502 1025.55 100.76 1025.55 Z" fill="#000000" fill-rule="evenodd" fill-opacity="1"></path><path clip-path="url(#clip330)" d="M120.922 1054.86 L125.807 1054.86 L125.807 1060.74 L120.922 1060.74 L120.922 1054.86 Z" fill="#000000" fill-rule="evenodd" fill-opacity="1"></path><path clip-path="url(#clip330)" d="M145.992 1029.25 Q142.381 1029.25 140.552 1032.82 Q138.746 1036.36 138.746 1043.49 Q138.746 1050.6 140.552 1054.16 Q142.381 1057.7 145.992 1057.7 Q149.626 1057.7 151.431 1054.16 Q153.26 1050.6 153.26 1043.49 Q153.26 1036.36 151.431 1032.82 Q149.626 1029.25 145.992 1029.25 M145.992 1025.55 Q151.802 1025.55 154.857 1030.16 Q157.936 1034.74 157.936 1043.49 Q157.936 1052.22 154.857 1056.82 Q151.802 1061.41 145.992 1061.41 Q140.181 1061.41 137.103 1056.82 Q134.047 1052.22 134.047 1043.49 Q134.047 1034.74 137.103 1030.16 Q140.181 1025.55 145.992 1025.55 Z" fill="#000000" fill-rule="evenodd" fill-opacity="1"></path><path clip-path="url(#clip330)" d="M179.001 1030.25 L167.195 1048.7 L179.001 1048.7 L179.001 1030.25 M177.774 1026.18 L183.653 1026.18 L183.653 1048.7 L188.584 1048.7 L188.584 1052.59 L183.653 1052.59 L183.653 1060.74 L179.001 1060.74 L179.001 1052.59 L163.399 1052.59 L163.399 1048.07 L177.774 1026.18 Z" fill="#000000" fill-rule="evenodd" fill-opacity="1"></path><path clip-path="url(#clip330)" d="M53.0754 875.902 L82.7512 875.902 L82.7512 879.837 L53.0754 879.837 L53.0754 875.902 Z" fill="#000000" fill-rule="evenodd" fill-opacity="1"></path><path clip-path="url(#clip330)" d="M102.844 861.249 Q99.2326 861.249 97.4039 864.814 Q95.5984 868.355 95.5984 875.485 Q95.5984 882.591 97.4039 886.156 Q99.2326 889.698 102.844 889.698 Q106.478 889.698 108.283 886.156 Q110.112 882.591 110.112 875.485 Q110.112 868.355 108.283 864.814 Q106.478 861.249 102.844 861.249 M102.844 857.545 Q108.654 857.545 111.709 862.152 Q114.788 866.735 114.788 875.485 Q114.788 884.212 111.709 888.818 Q108.654 893.402 102.844 893.402 Q97.0335 893.402 93.9549 888.818 Q90.8993 884.212 90.8993 875.485 Q90.8993 866.735 93.9549 862.152 Q97.0335 857.545 102.844 857.545 Z" fill="#000000" fill-rule="evenodd" fill-opacity="1"></path><path clip-path="url(#clip330)" d="M123.006 886.851 L127.89 886.851 L127.89 892.73 L123.006 892.73 L123.006 886.851 Z" fill="#000000" fill-rule="evenodd" fill-opacity="1"></path><path clip-path="url(#clip330)" d="M148.075 861.249 Q144.464 861.249 142.635 864.814 Q140.83 868.355 140.83 875.485 Q140.83 882.591 142.635 886.156 Q144.464 889.698 148.075 889.698 Q151.709 889.698 153.515 886.156 Q155.343 882.591 155.343 875.485 Q155.343 868.355 153.515 864.814 Q151.709 861.249 148.075 861.249 M148.075 857.545 Q153.885 857.545 156.941 862.152 Q160.019 866.735 160.019 875.485 Q160.019 884.212 156.941 888.818 Q153.885 893.402 148.075 893.402 Q142.265 893.402 139.186 888.818 Q136.131 884.212 136.131 875.485 Q136.131 866.735 139.186 862.152 Q142.265 857.545 148.075 857.545 Z" fill="#000000" fill-rule="evenodd" fill-opacity="1"></path><path clip-path="url(#clip330)" d="M172.265 888.795 L188.584 888.795 L188.584 892.73 L166.64 892.73 L166.64 888.795 Q169.302 886.041 173.885 881.411 Q178.491 876.758 179.672 875.416 Q181.917 872.892 182.797 871.156 Q183.7 869.397 183.7 867.707 Q183.7 864.953 181.755 863.217 Q179.834 861.48 176.732 861.48 Q174.533 861.48 172.079 862.244 Q169.649 863.008 166.871 864.559 L166.871 859.837 Q169.695 858.703 172.149 858.124 Q174.603 857.545 176.64 857.545 Q182.01 857.545 185.204 860.231 Q188.399 862.916 188.399 867.406 Q188.399 869.536 187.589 871.457 Q186.802 873.355 184.695 875.948 Q184.116 876.619 181.015 879.837 Q177.913 883.031 172.265 888.795 Z" fill="#000000" fill-rule="evenodd" fill-opacity="1"></path><path clip-path="url(#clip330)" d="M101.246 693.244 Q97.6354 693.244 95.8067 696.809 Q94.0012 700.35 94.0012 707.48 Q94.0012 714.586 95.8067 718.151 Q97.6354 721.693 101.246 721.693 Q104.881 721.693 106.686 718.151 Q108.515 714.586 108.515 707.48 Q108.515 700.35 106.686 696.809 Q104.881 693.244 101.246 693.244 M101.246 689.54 Q107.057 689.54 110.112 694.147 Q113.191 698.73 113.191 707.48 Q113.191 716.207 110.112 720.813 Q107.057 725.397 101.246 725.397 Q95.4363 725.397 92.3576 720.813 Q89.3021 716.207 89.3021 707.48 Q89.3021 698.73 92.3576 694.147 Q95.4363 689.54 101.246 689.54 Z" fill="#000000" fill-rule="evenodd" fill-opacity="1"></path><path clip-path="url(#clip330)" d="M121.408 718.846 L126.293 718.846 L126.293 724.725 L121.408 724.725 L121.408 718.846 Z" fill="#000000" fill-rule="evenodd" fill-opacity="1"></path><path clip-path="url(#clip330)" d="M146.478 693.244 Q142.867 693.244 141.038 696.809 Q139.232 700.35 139.232 707.48 Q139.232 714.586 141.038 718.151 Q142.867 721.693 146.478 721.693 Q150.112 721.693 151.918 718.151 Q153.746 714.586 153.746 707.48 Q153.746 700.35 151.918 696.809 Q150.112 693.244 146.478 693.244 M146.478 689.54 Q152.288 689.54 155.343 694.147 Q158.422 698.73 158.422 707.48 Q158.422 716.207 155.343 720.813 Q152.288 725.397 146.478 725.397 Q140.668 725.397 137.589 720.813 Q134.533 716.207 134.533 707.48 Q134.533 698.73 137.589 694.147 Q140.668 689.54 146.478 689.54 Z" fill="#000000" fill-rule="evenodd" fill-opacity="1"></path><path clip-path="url(#clip330)" d="M176.64 693.244 Q173.029 693.244 171.2 696.809 Q169.394 700.35 169.394 707.48 Q169.394 714.586 171.2 718.151 Q173.029 721.693 176.64 721.693 Q180.274 721.693 182.079 718.151 Q183.908 714.586 183.908 707.48 Q183.908 700.35 182.079 696.809 Q180.274 693.244 176.64 693.244 M176.64 689.54 Q182.45 689.54 185.505 694.147 Q188.584 698.73 188.584 707.48 Q188.584 716.207 185.505 720.813 Q182.45 725.397 176.64 725.397 Q170.829 725.397 167.751 720.813 Q164.695 716.207 164.695 707.48 Q164.695 698.73 167.751 694.147 Q170.829 689.54 176.64 689.54 Z" fill="#000000" fill-rule="evenodd" fill-opacity="1"></path><path clip-path="url(#clip330)" d="M102.844 525.239 Q99.2326 525.239 97.4039 528.804 Q95.5984 532.345 95.5984 539.475 Q95.5984 546.581 97.4039 550.146 Q99.2326 553.688 102.844 553.688 Q106.478 553.688 108.283 550.146 Q110.112 546.581 110.112 539.475 Q110.112 532.345 108.283 528.804 Q106.478 525.239 102.844 525.239 M102.844 521.535 Q108.654 521.535 111.709 526.142 Q114.788 530.725 114.788 539.475 Q114.788 548.202 111.709 552.808 Q108.654 557.392 102.844 557.392 Q97.0335 557.392 93.9549 552.808 Q90.8993 548.202 90.8993 539.475 Q90.8993 530.725 93.9549 526.142 Q97.0335 521.535 102.844 521.535 Z" fill="#000000" fill-rule="evenodd" fill-opacity="1"></path><path clip-path="url(#clip330)" d="M123.006 550.841 L127.89 550.841 L127.89 556.72 L123.006 556.72 L123.006 550.841 Z" fill="#000000" fill-rule="evenodd" fill-opacity="1"></path><path clip-path="url(#clip330)" d="M148.075 525.239 Q144.464 525.239 142.635 528.804 Q140.83 532.345 140.83 539.475 Q140.83 546.581 142.635 550.146 Q144.464 553.688 148.075 553.688 Q151.709 553.688 153.515 550.146 Q155.343 546.581 155.343 539.475 Q155.343 532.345 153.515 528.804 Q151.709 525.239 148.075 525.239 M148.075 521.535 Q153.885 521.535 156.941 526.142 Q160.019 530.725 160.019 539.475 Q160.019 548.202 156.941 552.808 Q153.885 557.392 148.075 557.392 Q142.265 557.392 139.186 552.808 Q136.131 548.202 136.131 539.475 Q136.131 530.725 139.186 526.142 Q142.265 521.535 148.075 521.535 Z" fill="#000000" fill-rule="evenodd" fill-opacity="1"></path><path clip-path="url(#clip330)" d="M172.265 552.785 L188.584 552.785 L188.584 556.72 L166.64 556.72 L166.64 552.785 Q169.302 550.03 173.885 545.401 Q178.491 540.748 179.672 539.406 Q181.917 536.882 182.797 535.146 Q183.7 533.387 183.7 531.697 Q183.7 528.943 181.755 527.207 Q179.834 525.47 176.732 525.47 Q174.533 525.47 172.079 526.234 Q169.649 526.998 166.871 528.549 L166.871 523.827 Q169.695 522.693 172.149 522.114 Q174.603 521.535 176.64 521.535 Q182.01 521.535 185.204 524.22 Q188.399 526.906 188.399 531.396 Q188.399 533.526 187.589 535.447 Q186.802 537.345 184.695 539.938 Q184.116 540.609 181.015 543.827 Q177.913 547.021 172.265 552.785 Z" fill="#000000" fill-rule="evenodd" fill-opacity="1"></path><path clip-path="url(#clip330)" d="M100.76 357.234 Q97.1493 357.234 95.3206 360.799 Q93.515 364.34 93.515 371.47 Q93.515 378.576 95.3206 382.141 Q97.1493 385.683 100.76 385.683 Q104.395 385.683 106.2 382.141 Q108.029 378.576 108.029 371.47 Q108.029 364.34 106.2 360.799 Q104.395 357.234 100.76 357.234 M100.76 353.53 Q106.571 353.53 109.626 358.137 Q112.705 362.72 112.705 371.47 Q112.705 380.197 109.626 384.803 Q106.571 389.386 100.76 389.386 Q94.9502 389.386 91.8715 384.803 Q88.816 380.197 88.816 371.47 Q88.816 362.72 91.8715 358.137 Q94.9502 353.53 100.76 353.53 Z" fill="#000000" fill-rule="evenodd" fill-opacity="1"></path><path clip-path="url(#clip330)" d="M120.922 382.836 L125.807 382.836 L125.807 388.715 L120.922 388.715 L120.922 382.836 Z" fill="#000000" fill-rule="evenodd" fill-opacity="1"></path><path clip-path="url(#clip330)" d="M145.992 357.234 Q142.381 357.234 140.552 360.799 Q138.746 364.34 138.746 371.47 Q138.746 378.576 140.552 382.141 Q142.381 385.683 145.992 385.683 Q149.626 385.683 151.431 382.141 Q153.26 378.576 153.26 371.47 Q153.26 364.34 151.431 360.799 Q149.626 357.234 145.992 357.234 M145.992 353.53 Q151.802 353.53 154.857 358.137 Q157.936 362.72 157.936 371.47 Q157.936 380.197 154.857 384.803 Q151.802 389.386 145.992 389.386 Q140.181 389.386 137.103 384.803 Q134.047 380.197 134.047 371.47 Q134.047 362.72 137.103 358.137 Q140.181 353.53 145.992 353.53 Z" fill="#000000" fill-rule="evenodd" fill-opacity="1"></path><path clip-path="url(#clip330)" d="M179.001 358.229 L167.195 376.678 L179.001 376.678 L179.001 358.229 M177.774 354.155 L183.653 354.155 L183.653 376.678 L188.584 376.678 L188.584 380.567 L183.653 380.567 L183.653 388.715 L179.001 388.715 L179.001 380.567 L163.399 380.567 L163.399 376.053 L177.774 354.155 Z" fill="#000000" fill-rule="evenodd" fill-opacity="1"></path><path clip-path="url(#clip330)" d="M101.084 189.229 Q97.4734 189.229 95.6447 192.794 Q93.8391 196.335 93.8391 203.465 Q93.8391 210.571 95.6447 214.136 Q97.4734 217.678 101.084 217.678 Q104.719 217.678 106.524 214.136 Q108.353 210.571 108.353 203.465 Q108.353 196.335 106.524 192.794 Q104.719 189.229 101.084 189.229 M101.084 185.525 Q106.895 185.525 109.95 190.132 Q113.029 194.715 113.029 203.465 Q113.029 212.192 109.95 216.798 Q106.895 221.381 101.084 221.381 Q95.2743 221.381 92.1956 216.798 Q89.1401 212.192 89.1401 203.465 Q89.1401 194.715 92.1956 190.132 Q95.2743 185.525 101.084 185.525 Z" fill="#000000" fill-rule="evenodd" fill-opacity="1"></path><path clip-path="url(#clip330)" d="M121.246 214.831 L126.131 214.831 L126.131 220.71 L121.246 220.71 L121.246 214.831 Z" fill="#000000" fill-rule="evenodd" fill-opacity="1"></path><path clip-path="url(#clip330)" d="M146.316 189.229 Q142.705 189.229 140.876 192.794 Q139.07 196.335 139.07 203.465 Q139.07 210.571 140.876 214.136 Q142.705 217.678 146.316 217.678 Q149.95 217.678 151.755 214.136 Q153.584 210.571 153.584 203.465 Q153.584 196.335 151.755 192.794 Q149.95 189.229 146.316 189.229 M146.316 185.525 Q152.126 185.525 155.181 190.132 Q158.26 194.715 158.26 203.465 Q158.26 212.192 155.181 216.798 Q152.126 221.381 146.316 221.381 Q140.506 221.381 137.427 216.798 Q134.371 212.192 134.371 203.465 Q134.371 194.715 137.427 190.132 Q140.506 185.525 146.316 185.525 Z" fill="#000000" fill-rule="evenodd" fill-opacity="1"></path><path clip-path="url(#clip330)" d="M177.056 201.567 Q173.908 201.567 172.056 203.719 Q170.228 205.872 170.228 209.622 Q170.228 213.349 172.056 215.525 Q173.908 217.678 177.056 217.678 Q180.204 217.678 182.033 215.525 Q183.885 213.349 183.885 209.622 Q183.885 205.872 182.033 203.719 Q180.204 201.567 177.056 201.567 M186.339 186.914 L186.339 191.173 Q184.579 190.34 182.774 189.9 Q180.991 189.46 179.232 189.46 Q174.603 189.46 172.149 192.585 Q169.718 195.71 169.371 202.03 Q170.737 200.016 172.797 198.951 Q174.857 197.863 177.334 197.863 Q182.542 197.863 185.552 201.034 Q188.584 204.182 188.584 209.622 Q188.584 214.946 185.436 218.164 Q182.288 221.381 177.056 221.381 Q171.061 221.381 167.89 216.798 Q164.718 212.192 164.718 203.465 Q164.718 195.27 168.607 190.409 Q172.496 185.525 179.047 185.525 Q180.806 185.525 182.589 185.872 Q184.394 186.22 186.339 186.914 Z" fill="#000000" fill-rule="evenodd" fill-opacity="1"></path><polyline clip-path="url(#clip332)" style="stroke:#009af9; stroke-linecap:round; stroke-linejoin:round; stroke-width:4; stroke-opacity:1; fill:none" points="
  1128.84,87.9763 1383.33,196.697 1613.67,348.215 1783.7,562.495 1852.46,825.012 1797.85,1090.67 1629.94,1306.54 1383.72,1432.08 1106.23,1445.72 848.274,1345.03 
  658.164,1147.42 572.276,889.74 604.426,620.609 742.761,385.633 958.421,214.806 1218.82,120.32 1496.08,102.816 1767.81,159.336 2012.25,288.127 2200.74,487.189 
  2292.52,742.926 2245.7,1010 2056.92,1208.8 1788.02,1276.97 1516.92,1217.62 1281.72,1073.38 1081.5,885.527 897.952,682.127 710.567,482.078 506.054,298.678 
  284.815,134.776 
  "></polyline>
<path clip-path="url(#clip330)" d="
M295.523 1438.47 L560.771 1438.47 L560.771 1334.79 L295.523 1334.79  Z
  " fill="#ffffff" fill-rule="evenodd" fill-opacity="1"></path>
<polyline clip-path="url(#clip330)" style="stroke:#000000; stroke-linecap:round; stroke-linejoin:round; stroke-width:4; stroke-opacity:1; fill:none" points="
  295.523,1438.47 560.771,1438.47 560.771,1334.79 295.523,1334.79 295.523,1438.47 
  "></polyline>
<polyline clip-path="url(#clip330)" style="stroke:#009af9; stroke-linecap:round; stroke-linejoin:round; stroke-width:4; stroke-opacity:1; fill:none" points="
  319.169,1386.63 461.048,1386.63 
  "></polyline>
<path clip-path="url(#clip330)" d="M498.536 1406.32 Q496.731 1410.95 495.018 1412.36 Q493.305 1413.78 490.435 1413.78 L487.032 1413.78 L487.032 1410.21 L489.532 1410.21 Q491.291 1410.21 492.263 1409.38 Q493.236 1408.54 494.416 1405.44 L495.18 1403.5 L484.694 1377.99 L489.208 1377.99 L497.31 1398.27 L505.411 1377.99 L509.925 1377.99 L498.536 1406.32 Z" fill="#000000" fill-rule="evenodd" fill-opacity="1"></path><path clip-path="url(#clip330)" d="M517.217 1399.98 L524.856 1399.98 L524.856 1373.61 L516.546 1375.28 L516.546 1371.02 L524.809 1369.35 L529.485 1369.35 L529.485 1399.98 L537.124 1399.98 L537.124 1403.91 L517.217 1403.91 L517.217 1399.98 Z" fill="#000000" fill-rule="evenodd" fill-opacity="1"></path></svg>